<svg xmlns="http://www.w3.org/2000/svg" width="512" height="512" viewBox="0 0 512 512">
  <!-- 背景 -->
  <rect width="512" height="512" rx="112" fill="#eef7e8"/>

  <!-- 草地 -->
  <ellipse cx="256" cy="460" rx="280" ry="80" fill="#c8e6b0"/>
  <ellipse cx="256" cy="480" rx="280" ry="60" fill="#a8d888"/>

  <!-- 雲朵左 -->
  <ellipse cx="80" cy="90" rx="45" ry="18" fill="white" opacity="0.85"/>
  <circle cx="70" cy="76" r="22" fill="white" opacity="0.85"/>
  <circle cx="95" cy="72" r="16" fill="white" opacity="0.85"/>

  <!-- 雲朵右 -->
  <ellipse cx="420" cy="110" rx="38" ry="15" fill="white" opacity="0.85"/>
  <circle cx="410" cy="98" r="18" fill="white" opacity="0.85"/>
  <circle cx="432" cy="96" r="13" fill="white" opacity="0.85"/>

  <!-- 太陽 -->
  <circle cx="420" cy="72" r="28" fill="#FFD93D"/>
  <circle cx="420" cy="72" r="22" fill="#FFE566"/>

  <!-- 羊駝（簡化） -->
  <text x="256" y="310" font-size="140" text-anchor="middle" dominant-baseline="middle">🦙</text>

  <!-- ¡Hola! 主文字 -->
  <text x="256" y="175" font-family="Georgia, serif" font-size="88" font-weight="bold"
        text-anchor="middle" fill="#3a6b35" letter-spacing="-2">¡Hola!</text>

  <!-- 草叢 -->
  <rect x="80"  y="410" width="10" height="40" rx="5" fill="#6aba3e" transform="rotate(-8 85 450)"/>
  <rect x="100" y="420" width="8"  height="28" rx="4" fill="#8fd458" transform="rotate(5 104 448)"/>
  <rect x="116" y="408" width="10" height="44" rx="5" fill="#5faa30" transform="rotate(-4 121 452)"/>
  <rect x="180" y="415" width="8"  height="34" rx="4" fill="#7cc44a" transform="rotate(7 184 449)"/>
  <rect x="196" y="422" width="9"  height="26" rx="4" fill="#6aba3e" transform="rotate(-6 200 448)"/>
  <rect x="310" y="415" width="8"  height="34" rx="4" fill="#8fd458" transform="rotate(-7 314 449)"/>
  <rect x="326" y="422" width="9"  height="26" rx="4" fill="#5faa30" transform="rotate(5 330 448)"/>
  <rect x="390" y="410" width="10" height="40" rx="5" fill="#6aba3e" transform="rotate(8 395 450)"/>
  <rect x="408" y="420" width="8"  height="28" rx="4" fill="#7cc44a" transform="rotate(-5 412 448)"/>
  <rect x="424" y="408" width="10" height="44" rx="5" fill="#5faa30" transform="rotate(4 429 452)"/>
</svg>
